<svg width="24" height="24" viewBox="0 0 24 24" fill="none" xmlns="http://www.w3.org/2000/svg">
<path fill-rule="evenodd" clip-rule="evenodd" d="M17.2929 7.29289C17.6834 6.90237 18.3166 6.90237 18.7071 7.29289L22.7071 11.2929C23.0976 11.6834 23.0976 12.3166 22.7071 12.7071L18.7071 16.7071C18.3166 17.0976 17.6834 17.0976 17.2929 16.7071C16.9024 16.3166 16.9024 15.6834 17.2929 15.2929L20.5858 12L17.2929 8.70711C16.9024 8.31658 16.9024 7.68342 17.2929 7.29289Z" fill="#1D1D1D"/>
<path fill-rule="evenodd" clip-rule="evenodd" d="M6.70711 7.29289C7.09763 7.68342 7.09763 8.31658 6.70711 8.70711L3.41421 12L6.70711 15.2929C7.09763 15.6834 7.09763 16.3166 6.70711 16.7071C6.31658 17.0976 5.68342 17.0976 5.29289 16.7071L1.29289 12.7071C0.902369 12.3166 0.902369 11.6834 1.29289 11.2929L5.29289 7.29289C5.68342 6.90237 6.31658 6.90237 6.70711 7.29289Z" fill="#1D1D1D"/>
<path fill-rule="evenodd" clip-rule="evenodd" d="M14.7985 3.04554C15.3257 3.21028 15.6195 3.77115 15.4547 4.2983L10.4547 20.2983C10.29 20.8254 9.72914 21.1192 9.20199 20.9545C8.67485 20.7898 8.38105 20.2289 8.54579 19.7017L13.5458 3.70175C13.7105 3.1746 14.2714 2.88081 14.7985 3.04554Z" fill="#1D1D1D"/>
</svg>
